Coordinates
version=1
nRows=17
nColumns=24
inDegrees=yes

Units are S.I. units (second, meters, Newtons, ...)
Angles are in degrees.

endheader
time	pelvis_tilt	pelvis_list	pelvis_rotation	pelvis_tx	pelvis_ty	pelvis_tz	hip_flexion_r	hip_adduction_r	hip_rotation_r	knee_angle_r	ankle_angle_r	subtalar_angle_r	mtp_angle_r	hip_flexion_l	hip_adduction_l	hip_rotation_l	knee_angle_l	ankle_angle_l	subtalar_angle_l	mtp_angle_l	lumbar_extension	lumbar_bending	lumbar_rotation
      1.40800000	      2.01390103	      2.29373408	     -2.55295200	      0.32617717	      1.02146589	      0.25927103	      9.11168586	     -5.84431940	     -7.61073953	    -65.76298577	      3.36545946	    -16.21141596	      4.32104958	      7.76150273	      2.92098889	     -9.81576312	    -13.82271570	      4.17554347	    -10.39116679	    -11.30533318	    -12.44615438	     -5.58859384	      2.45137485
      1.41216667	      1.99172332	      2.17548802	     -2.37629597	      0.33115017	      1.02208096	      0.25858322	      9.74863604	     -5.66613260	     -7.72580808	    -65.75833840	      3.55963534	    -16.15792747	      4.22193876	      7.39794483	      2.86800317	     -9.63581232	    -13.66670690	      4.30535134	    -10.31899544	    -11.30915132	    -12.46031026	     -5.39264831	      2.26497149
      1.41633333	      2.00414681	      2.08004448	     -2.26582611	      0.33613310	      1.02273708	      0.25805885	     10.35297994	     -5.49795496	     -7.77756093	    -65.69643247	      3.72713077	    -16.16752150	      4.20445209	      6.97026587	      2.82894950	     -9.52340459	    -13.45596017	      4.39490200	    -10.26765430	    -11.30861939	    -12.50247076	     -5.26039447	      2.21139713
      1.42050000	      2.01957705	      1.93932879	     -2.00766472	      0.34104078	      1.02337131	      0.25719066	     10.90387174	     -5.33295639	     -8.00708557	    -65.54723947	      3.88461848	    -16.10955029	      4.05627204	      6.58261590	      2.76284143	     -9.26500102	    -13.31794923	      4.52687879	    -10.18571566	    -11.31278956	    -12.58041052	     -5.00153035	      1.83515389
      1.42466667	      2.01303179	      1.81427421	     -1.84814923	      0.34600242	      1.02396880	      0.25656974	     11.48884698	     -5.15489561	     -8.12891937	    -65.34667699	      4.01695922	    -16.03431892	      3.99643236	      6.18862205	      2.69253616	     -9.11238027	    -13.13077687	      4.63486624	    -10.11390476	    -11.31348190	    -12.61171082	     -4.80919404	      1.72248702
      1.42883333	      2.01901652	      1.73602029	     -1.74355175	      0.35099347	      1.02453617	      0.25607342	     12.06749983	     -5.02072912	     -8.20298773	    -65.11299516	      4.13869666	    -16.03497846	      3.98337053	      5.75478556	      2.66699696	     -9.01727918	    -12.88970741	      4.71979558	    -10.06007976	    -11.31258742	    -12.62878301	     -4.68484110	      1.66530549
      1.43300000	      2.06554906	      1.56767405	     -1.46514365	      0.35594089	      1.02520632	      0.25517174	     12.52138796	     -4.85017343	     -8.48978460	    -64.73957715	      4.21762938	    -15.97461040	      3.90649360	      5.32235025	      2.56715752	     -8.75086284	    -12.73080130	      4.85862317	     -9.96661112	    -11.31199009	    -12.74039016	     -4.38329367	      1.30618789
      1.43716667	      2.08260362	      1.45964963	     -1.33391605	      0.36090009	      1.02577301	      0.25462780	     13.04670231	     -4.69815448	     -8.61045201	    -64.36657675	      4.33274476	    -15.94439203	      3.87294397	      4.88281392	      2.51096675	     -8.62561207	    -12.49092451	      4.87273228	     -9.96573360	    -11.31370524	    -12.79222051	     -4.20046760	      1.18327515
      1.44133333	      2.18644083	      1.32423429	     -1.06913981	      0.36587719	      1.02648837	      0.25375453	     13.41004116	     -4.57691203	     -8.90115746	    -63.87613915	      4.37575322	    -15.91874508	      3.79524085	      4.35764813	      2.45006614	     -8.33697393	    -12.26212851	      4.98723070	     -9.94846887	    -11.31512517	    -12.95130894	     -3.95818853	      0.86743562
      1.44550000	      2.19218407	      1.22219674	     -0.95056519	      0.37085019	      1.02698702	      0.25326179	     13.92050874	     -4.43400801	     -9.01927067	    -63.39126137	      4.47364132	    -15.87738976	      3.76900444	      3.92374684	      2.39318229	     -8.23054224	    -12.00814098	      4.99869120	     -9.94618152	    -11.31705497	    -12.98552025	     -3.78559944	      0.76982829
      1.44966667	      2.32631538	      1.07958158	     -0.67570513	      0.37583473	      1.02771829	      0.25239589	     14.20937648	     -4.31610858	     -9.33945756	    -62.77031868	      4.49311139	    -15.85656065	      3.70153331	      3.36084874	      2.31942490	     -7.93332714	    -11.76532473	      5.10566187	     -9.95524954	    -11.31993738	    -13.17480827	     -3.53658375	      0.45646135
      1.45383333	      2.42543379	      0.96369964	     -0.48060332	      0.38082030	      1.02834117	      0.25170381	     14.55093658	     -4.20286245	     -9.56712145	    -62.13190866	      4.54538240	    -15.80692263	      3.63864915	      2.81994503	      2.26259525	     -7.71718525	    -11.48906292	      5.13586931	    -10.00888240	    -11.32590634	    -13.32020304	     -3.32103335	      0.23734799
      1.45800000	      2.52193215	      0.84501394	     -0.28888474	      0.38579466	      1.02893182	      0.25105465	     14.88014832	     -4.08491197	     -9.79703831	    -61.43843040	      4.58572335	    -15.76863441	      3.58179344	      2.28510705	      2.19486073	     -7.51343525	    -11.21821735	      5.17818684	    -10.03800239	    -11.33210042	    -13.46406037	     -3.10446398	      0.04001722
      1.46216667	      2.60344177	      0.72998907	     -0.08626039	      0.39080146	      1.02948027	      0.25039276	     15.20132013	     -3.97724204	    -10.04494957	    -60.68529421	      4.62024116	    -15.73265922	      3.52528010	      1.76660105	      2.12914308	     -7.30650857	    -10.94790154	      5.21981821	    -10.07917025	    -11.33981960	    -13.57863647	     -2.89547382	     -0.16687973
      1.46633333	      2.73544573	      0.62112956	      0.10352514	      0.39579353	      1.03007301	      0.24976178	     15.45136436	     -3.87678321	    -10.28480984	    -59.87771614	      4.65555356	    -15.67817125	      3.47048515	      1.18433032	      2.06687339	     -7.10417629	    -10.65486375	      5.24122085	    -10.13971150	    -11.34874469	    -13.75674508	     -2.69279593	     -0.36359776
      1.47050000	      2.82952859	      0.50810877	      0.30320726	      0.40079858	      1.03058154	      0.24913277	     15.72235402	     -3.77327216	    -10.53734637	    -59.01692646	      4.67423742	    -15.63568262	      3.41698838	      0.64933816	      1.99528742	     -6.89851348	    -10.37551943	      5.28020005	    -10.18362457	    -11.35804622	    -13.88598240	     -2.48200594	     -0.55722624
      1.47466667	      2.92072963	      0.40342226	      0.48955194	      0.40579443	      1.03105919	      0.24855248	     15.98238675	     -3.67404044	    -10.77348545	    -58.10678621	      4.69460461	    -15.57275498	      3.36421255	      0.11381071	      1.92778359	     -6.69153985	    -10.08578916	      5.29906169	    -10.24548797	    -11.36929799	    -14.01822543	     -2.28816539	     -0.74266820
